<?xml version="1.0" encoding="UTF-8"?>
<svg xmlns="http://www.w3.org/2000/svg" width="800" height="500" viewBox="0 0 800 500">
  <rect width="800" height="500" fill="white"/>

  <!-- Title -->
  <text x="400" y="25" text-anchor="middle" font-size="16" font-weight="bold" fill="#333">
    Damping Factor vs Number of Preferences
  </text>

  <!-- Grid lines -->
  
      <line x1="65" y1="440" x2="70" y2="440" stroke="#666" />
      <text x="60" y="444" text-anchor="end" font-size="12" fill="#333">0.0</text>
      <line x1="70" y1="440" x2="650" y2="440" stroke="#eee" />
    
      <line x1="65" y1="360" x2="70" y2="360" stroke="#666" />
      <text x="60" y="364" text-anchor="end" font-size="12" fill="#333">0.2</text>
      <line x1="70" y1="360" x2="650" y2="360" stroke="#eee" />
    
      <line x1="65" y1="280" x2="70" y2="280" stroke="#666" />
      <text x="60" y="284" text-anchor="end" font-size="12" fill="#333">0.4</text>
      <line x1="70" y1="280" x2="650" y2="280" stroke="#eee" />
    
      <line x1="65" y1="200" x2="70" y2="200" stroke="#666" />
      <text x="60" y="204" text-anchor="end" font-size="12" fill="#333">0.6</text>
      <line x1="70" y1="200" x2="650" y2="200" stroke="#eee" />
    
      <line x1="65" y1="120" x2="70" y2="120" stroke="#666" />
      <text x="60" y="124" text-anchor="end" font-size="12" fill="#333">0.8</text>
      <line x1="70" y1="120" x2="650" y2="120" stroke="#eee" />
    
      <line x1="65" y1="40" x2="70" y2="40" stroke="#666" />
      <text x="60" y="44" text-anchor="end" font-size="12" fill="#333">1.0</text>
      <line x1="70" y1="40" x2="650" y2="40" stroke="#eee" />
    

  <!-- Axes -->
  <line x1="70" y1="40" x2="70" y2="440" stroke="#333" stroke-width="1" />
  <line x1="70" y1="440" x2="650" y2="440" stroke="#333" stroke-width="1" />

  <!-- Axis ticks -->
  
      <line x1="70" y1="440" x2="70" y2="445" stroke="#666" />
      <text x="70" y="460" text-anchor="middle" font-size="12" fill="#333">0</text>
    
      <line x1="128" y1="440" x2="128" y2="445" stroke="#666" />
      <text x="128" y="460" text-anchor="middle" font-size="12" fill="#333">50</text>
    
      <line x1="186" y1="440" x2="186" y2="445" stroke="#666" />
      <text x="186" y="460" text-anchor="middle" font-size="12" fill="#333">100</text>
    
      <line x1="244" y1="440" x2="244" y2="445" stroke="#666" />
      <text x="244" y="460" text-anchor="middle" font-size="12" fill="#333">150</text>
    
      <line x1="302" y1="440" x2="302" y2="445" stroke="#666" />
      <text x="302" y="460" text-anchor="middle" font-size="12" fill="#333">200</text>
    
      <line x1="360" y1="440" x2="360" y2="445" stroke="#666" />
      <text x="360" y="460" text-anchor="middle" font-size="12" fill="#333">250</text>
    
      <line x1="418" y1="440" x2="418" y2="445" stroke="#666" />
      <text x="418" y="460" text-anchor="middle" font-size="12" fill="#333">300</text>
    
      <line x1="476" y1="440" x2="476" y2="445" stroke="#666" />
      <text x="476" y="460" text-anchor="middle" font-size="12" fill="#333">350</text>
    
      <line x1="534" y1="440" x2="534" y2="445" stroke="#666" />
      <text x="534" y="460" text-anchor="middle" font-size="12" fill="#333">400</text>
    
      <line x1="592" y1="440" x2="592" y2="445" stroke="#666" />
      <text x="592" y="460" text-anchor="middle" font-size="12" fill="#333">450</text>
    
      <line x1="650" y1="440" x2="650" y2="445" stroke="#666" />
      <text x="650" y="460" text-anchor="middle" font-size="12" fill="#333">500</text>
    

  <!-- Axis labels -->
  <text x="360" y="485" text-anchor="middle" font-size="14" fill="#333">
    Number of Preferences (P)
  </text>
  <text x="20" y="240" text-anchor="middle" font-size="14" fill="#333" transform="rotate(-90, 20, 240)">
    Damping Factor (d)
  </text>

  <!-- Data lines -->
  <polyline points="70,420 72.32,407.3469387755102 74.64,379.62264150943395 76.96,355.7894736842105 79.28,335.08196721311475 81.6,316.9230769230769 83.92,300.8695652173913 86.24000000000001,286.57534246575347 88.56,273.76623376623377 90.88,262.22222222222223 93.2,251.76470588235296 95.52,242.24719101123597 97.84,233.5483870967742 100.16,225.56701030927834 102.48,218.2178217821782 104.8,211.42857142857144 107.12,205.13761467889907 109.44,199.29203539823007 111.75999999999999,193.84615384615384 114.08,188.7603305785124 116.4,184 118.72,179.53488372093022 121.03999999999999,175.33834586466168 123.36,171.38686131386862 125.68,167.6595744680851 128,164.13793103448273 130.32,160.80536912751677 132.64,157.6470588235294 134.96,154.64968152866243 137.28,151.80124223602485 139.6,149.09090909090907 141.92000000000002,146.50887573964496 144.24,144.0462427745665 146.56,141.6949152542373 148.88,139.44751381215468 151.2,137.2972972972973 153.51999999999998,135.23809523809524 155.83999999999997,133.26424870466326 158.16,131.37055837563452 160.48000000000002,129.55223880597015 162.8,127.8048780487805 165.12,126.1244019138756 167.44,124.50704225352115 169.76,122.94930875576034 172.07999999999998,121.44796380090497 174.39999999999998,120 176.72,118.60262008733628 179.04000000000002,117.2532188841202 181.36,115.94936708860757 183.68,114.68879668049794 186,113.46938775510205 188.32,112.28915662650604 190.64,111.1462450592885 192.95999999999998,110.03891050583661 195.28,108.9655172413793 197.6,107.92452830188677 199.92000000000002,106.91449814126395 202.24,105.93406593406593 204.56,104.98194945848377 206.88,104.05693950177937 209.2,103.15789473684214 211.52,102.28373702422147 213.84,101.4334470989761 216.16,100.60606060606062 218.48,99.80066445182723 220.8,99.01639344262298 223.12,98.25242718446606 225.44,97.50798722044726 227.76000000000002,96.78233438485802 230.08,96.07476635514018 232.4,95.38461538461536 234.72,94.71124620060789 237.04,94.05405405405406 239.35999999999999,93.41246290801183 241.67999999999998,92.78592375366571 244,92.17391304347825 246.32,91.57593123209165 248.64,90.9915014164306 250.96,90.42016806722688 253.28,89.86149584487538 255.6,89.3150684931507 257.92,88.78048780487802 260.24,88.25737265415546 262.56,87.74535809018568 264.88,87.24409448818898 267.20000000000005,86.75324675324674 269.52,86.2724935732648 271.84,85.80152671755724 274.15999999999997,85.34005037783373 276.48,84.88778054862843 278.79999999999995,84.44444444444446 281.12,84.00977995110026 283.44,83.58353510895887 285.76,83.16546762589928 288.08000000000004,82.75534441805229 290.4,82.35294117647055 292.72,81.95804195804197 295.04,81.57043879907621 297.36,81.18993135011442 299.68,80.81632653061223 302,80.44943820224722 304.32000000000005,80.08908685968822 306.64,79.73509933774835 308.96,79.38730853391684 311.28,79.04555314533627 313.6,78.70967741935488 315.91999999999996,78.37953091684432 318.24,78.05496828752644 320.56,77.73584905660374 322.88,77.42203742203742 325.2,77.11340206185565 327.52,76.80981595092027 329.84000000000003,76.5111561866126 332.16,76.21730382293765 334.48,75.92814371257487 336.8,75.6435643564356 339.12,75.36345776031436 341.44,75.08771929824564 343.76,74.81624758220505 346.08,74.54894433781186 348.4,74.28571428571428 350.71999999999997,74.0264650283554 353.04,73.7711069418387 355.36,73.51955307262568 357.68,73.27171903881703 360,73.02752293577981 362.32,72.78688524590166 364.64,72.54972875226036 366.96,72.31597845601436 369.28000000000003,72.08556149732618 371.6,71.85840707964604 373.92,71.63444639718807 376.24,71.41361256544502 378.56,71.19584055459273 380.88,70.98106712564544 383.20000000000005,70.76923076923077 385.52000000000004,70.56027164685912 387.84000000000003,70.35413153457 390.16,70.1507537688442 392.48,69.95008319467559 394.8,69.75206611570246 397.11999999999995,69.55665024630542 399.44,69.36378466557915 401.76,69.17341977309565 404.08,68.98550724637681 406.4,68.79999999999995 408.71999999999997,68.61685214626391 411.03999999999996,68.43601895734594 413.35999999999996,68.25745682888538 415.68,68.08112324492981 418,67.90697674418607 420.32,67.73497688751922 422.64,67.56508422664626 424.96,67.39726027397262 427.28,67.23146747352496 429.6,67.06766917293237 431.92,66.90582959641256 434.24,66.74591381872216 436.56,66.58788774002954 438.88,66.43171806167402 441.2,66.27737226277372 443.52,66.12481857764874 445.84000000000003,65.974025974026 448.16,65.82496413199425 450.48,65.67760342368047 452.8,65.531914893617 455.12,65.38787023977432 457.44,65.24544179523144 459.76000000000005,65.10460251046027 462.08000000000004,64.96532593619969 464.40000000000003,64.82758620689657 466.72,64.6913580246914 469.03999999999996,64.55661664392903 471.35999999999996,64.4233378561737 473.67999999999995,64.29149797570852 476,64.16107382550337 478.32,64.03204272363155 480.64,63.904382470119515 482.96,63.77807133421402 485.28,63.653088042049944 487.59999999999997,63.52941176470591 489.91999999999996,63.407022106631985 492.24,63.28589909443724 494.56,63.16602316602314 496.88,63.04737516005122 499.2,62.9299363057325 501.52,62.81368821292779 503.84,62.69861286254729 506.16,62.58469259723961 508.48,62.47191011235958 510.8,62.36024844720498 513.12,62.249690976514216 515.44,62.140221402214024 517.76,62.03182374541001 520.08,61.92448233861148 522.4000000000001,61.81818181818181 524.72,61.712907117008456 527.04,61.60864345738298 529.36,61.50537634408602 531.6800000000001,61.403091557669484 534,61.30177514792899 536.32,61.201413427561874 538.6400000000001,61.10199296600234 540.96,61.00350058343059 543.28,60.90592334494772 545.5999999999999,60.809248554913324 547.92,60.71346375143844 550.24,60.61855670103097 552.56,60.52451539338654 554.88,60.431328036322384 557.2,60.338983050847446 559.52,60.247469066366705 561.8399999999999,60.15677491601343 564.16,60.06688963210701 566.48,59.9778024417314 568.8,59.889502762430936 571.12,59.801980198019805 573.44,59.71522453450166 575.76,59.629225736095975 578.0799999999999,59.54397394136811 580.4,59.459459459459424 582.72,59.375672766415505 585.04,59.292604501607684 587.36,59.21024546424758 589.6800000000001,59.128586609989384 592,59.047619047619094 594.32,58.96733403582715 596.64,58.88772298006296 598.96,58.80877742946711 601.28,58.730489073881415 603.6,58.65284974093265 605.9200000000001,58.57585139318883 608.24,58.49948612538543 610.5600000000001,58.42374616171958 612.88,58.348623853210995 615.1999999999999,58.2741116751269 617.52,58.20020222446914 619.8399999999999,58.12688821752266 622.16,58.054162487462406 624.48,57.98201798201802 626.8,57.910447761194064 629.12,57.83944499504463 631.4399999999999,57.76900296150046 633.76,57.699115044247776 636.08,57.62977473065621 638.4,57.5609756097561 640.72,57.492711370262384 643.04,57.42497579864471 645.36,57.357762777242044 647.68,57.29106628242073 650,57.2248803827751" fill="none" stroke="#2563eb" stroke-width="2.5" />
  <polyline points="70,420 72.32,420 74.64,420 76.96,416.23762376237624 79.28,408.93203883495147 81.6,401.9047619047619 83.92,395.14018691588785 86.24000000000001,388.6238532110092 88.56,382.34234234234236 90.88,376.283185840708 93.2,370.4347826086956 95.52,364.78632478632477 97.84,359.327731092437 100.16,354.0495867768595 102.48,348.9430894308943 104.8,344 107.12,339.21259842519686 109.44,334.5736434108527 111.75999999999999,330.07633587786256 114.08,325.7142857142857 116.4,321.4814814814815 118.72,317.37226277372264 121.03999999999999,313.38129496402877 123.36,309.50354609929076 125.68,305.7342657342657 128,302.0689655172414 130.32,298.5034013605442 132.64,295.03355704697987 134.96,291.65562913907286 137.28,288.3660130718954 139.6,285.1612903225806 141.92000000000002,282.03821656050957 144.24,278.9937106918239 146.56,276.0248447204969 148.88,273.1288343558282 151.2,270.3030303030303 153.51999999999998,267.54491017964074 155.83999999999997,264.85207100591714 158.16,262.22222222222223 160.48000000000002,259.6531791907514 162.8,257.1428571428571 165.12,254.68926553672316 167.44,252.2905027932961 169.76,249.94475138121547 172.07999999999998,247.65027322404373 174.39999999999998,245.4054054054054 176.72,243.2085561497326 179.04000000000002,241.05820105820106 181.36,238.95287958115185 183.68,236.89119170984455 186,234.8717948717949 188.32,232.89340101522842 190.64,230.95477386934672 192.95999999999998,229.05472636815918 195.28,227.19211822660097 197.6,225.36585365853657 199.92000000000002,223.57487922705315 202.24,221.81818181818184 204.56,220.09478672985782 206.88,218.4037558685446 209.2,216.74418604651163 211.52,215.1152073732719 213.84,213.51598173515984 216.16,211.94570135746608 218.48,210.40358744394618 220.8,208.8888888888889 223.12,207.40088105726875 225.44,205.93886462882094 227.76000000000002,204.50216450216448 230.08,203.09012875536482 232.4,201.70212765957447 234.72,200.33755274261603 237.04,198.99581589958157 239.35999999999999,197.67634854771785 241.67999999999998,196.37860082304528 244,195.10204081632654 246.32,193.84615384615384 248.64,192.61044176706827 250.96,191.39442231075697 253.28,190.19762845849806 255.6,189.01960784313727 257.92,187.85992217898834 260.24,186.71814671814673 262.56,185.59386973180074 264.88,184.48669201520912 267.20000000000005,183.39622641509436 269.52,182.32209737827714 271.84,181.2639405204461 274.15999999999997,180.22140221402213 276.48,179.1941391941392 278.79999999999995,178.1818181818182 281.12,177.18411552346572 283.44,176.2007168458781 285.76,175.23131672597867 288.08000000000004,174.27561837455835 290.4,173.33333333333337 292.72,172.40418118466897 295.04,171.48788927335642 297.36,170.58419243986253 299.68,169.6928327645051 302,168.81355932203394 304.32000000000005,167.94612794612794 306.64,167.0903010033445 308.96,166.24584717607974 311.28,165.41254125412541 313.6,164.59016393442624 315.91999999999996,163.77850162866451 318.24,162.97734627831716 320.56,162.18649517684884 322.88,161.405750798722 325.2,160.63492063492066 327.52,159.87381703470032 329.84000000000003,159.12225705329155 332.16,158.38006230529595 334.48,157.6470588235294 336.8,156.9230769230769 339.12,156.20795107033638 341.44,155.5015197568389 343.76,154.80362537764353 346.08,154.1141141141141 348.4,153.43283582089555 350.71999999999997,152.75964391691394 353.04,152.09439528023597 355.36,151.43695014662757 357.68,150.78717201166182 360,150.14492753623188 362.32,149.51008645533142 364.64,148.88252148997134 366.96,148.26210826210826 369.28000000000003,147.64872521246457 371.6,147.04225352112672 373.92,146.44257703081234 376.24,145.84958217270196 378.56,145.26315789473688 380.88,144.6831955922865 383.20000000000005,144.1095890410959 385.52000000000004,143.5422343324251 387.84000000000003,142.98102981029808 390.16,142.42587601078168 392.48,141.8766756032171 394.8,141.33333333333331 397.11999999999995,140.79575596816977 399.44,140.26385224274406 401.76,139.73753280839895 404.08,139.21671018276766 406.4,138.7012987012987 408.71999999999997,138.19121447028425 411.03999999999996,137.68637532133675 413.35999999999996,137.1867007672634 415.68,136.69211195928756 418,136.2025316455696 420.32,135.71788413098238 422.64,135.23809523809524 424.96,134.7630922693267 427.28,134.2928039702233 429.6,133.8271604938272 431.92,133.36609336609337 434.24,132.90953545232276 436.56,132.45742092457425 438.88,132.00968523002422 441.2,131.56626506024094 443.52,131.12709832134294 445.84000000000003,130.69212410501194 448.16,130.26128266033254 450.48,129.83451536643025 452.8,129.41176470588232 455.12,128.9929742388759 457.44,128.57808857808863 459.76000000000005,128.16705336426918 462.08000000000004,127.75981524249426 464.40000000000003,127.35632183908046 466.72,126.95652173913044 469.03999999999996,126.5603644646925 471.35999999999996,126.16780045351476 473.67999999999995,125.77878103837475 476,125.39325842696627 478.32,125.01118568232664 480.64,124.63251670378622 482.96,124.25720620842571 485.28,123.88520971302427 487.59999999999997,123.5164835164835 489.91999999999996,123.15098468271333 492.24,122.78867102396515 494.56,122.42950108459871 496.88,122.07343412526996 499.2,121.72043010752691 501.52,121.37044967880087 503.84,121.02345415778251 506.16,120.67940552016984 508.48,120.33826638477802 510.8,120 513.12,119.66457023060798 515.44,119.33194154488518 517.76,119.00207900207897 520.08,118.67494824016563 522.4000000000001,118.35051546391753 524.72,118.02874743326487 527.04,117.70961145194275 529.36,117.39307535641547 531.6800000000001,117.07910750507102 534,116.76767676767679 536.32,116.45875251509057 538.6400000000001,116.15230460921845 540.96,115.8483033932136 543.28,115.54671968190854 545.5999999999999,115.24752475247521 547.92,114.9506903353057 550.24,114.65618860510807 552.56,114.3639921722114 554.88,114.07407407407408 557.2,113.7864077669903 559.52,113.50096711798841 561.8399999999999,113.21772639691716 564.16,112.93666026871398 566.48,112.65774378585087 568.8,112.38095238095241 571.12,112.10626185958256 573.44,111.83364839319472 575.76,111.56308851224105 578.0799999999999,111.29455909943715 580.4,111.0280373831776 582.72,110.76350093109869 585.04,110.50092764378479 587.36,110.24029574861368 589.6800000000001,109.98158379373848 592,109.7247706422018 594.32,109.46983546617918 596.64,109.21675774134792 598.96,108.9655172413793 601.28,108.71609403254973 603.6,108.46846846846847 605.9200000000001,108.2226211849192 608.24,107.97853309481218 610.5600000000001,107.73618538324422 612.88,107.49555950266426 615.1999999999999,107.2566371681416 617.52,107.01940035273373 619.8399999999999,106.78383128295258 622.16,106.54991243432573 624.48,106.3176265270506 626.8,106.08695652173913 629.12,105.85788561525135 631.4399999999999,105.63039723661484 633.76,105.40447504302927 636.08,105.18010291595198 638.4,104.95726495726495 640.72,104.73594548551961 643.04,104.51612903225805 645.36,104.29780033840944 647.68,104.08094435075884 650,103.8655462184874" fill="none" stroke="#dc2626" stroke-width="2.5" />
  <polyline points="70,420 72.32,420 74.64,420 76.96,420 79.28,420 81.6,420 83.92,419.08496732026146 86.24000000000001,415.8099352051836 88.56,412.5910064239829 90.88,409.4267515923567 93.2,406.3157894736842 95.52,403.25678496868477 97.84,400.24844720496895 100.16,397.2895277207392 102.48,394.3788187372709 104.8,391.5151515151515 107.12,388.69739478957916 109.44,385.92445328031806 111.75999999999999,383.1952662721894 114.08,380.5088062622309 116.4,377.86407766990294 118.72,375.26011560693644 121.03999999999999,372.6959847036329 123.36,370.1707779886148 125.68,367.683615819209 128,365.23364485981307 130.32,362.8200371057514 132.64,360.44198895027625 134.96,358.0987202925046 137.28,355.7894736842105 139.6,353.51351351351354 141.92000000000002,351.2701252236136 144.24,349.05861456483126 146.56,346.8783068783069 148.88,344.72854640980734 151.2,342.6086956521739 153.51999999999998,340.5181347150259 155.83999999999997,338.4562607204117 158.16,336.4224872231687 160.48000000000002,334.4162436548223 162.8,332.43697478991595 165.12,330.4841402337229 167.44,328.55721393034827 169.76,326.65568369028006 172.07999999999998,324.77905073649754 174.39999999999998,322.9268292682927 176.72,321.09854604200325 179.04000000000002,319.2937399678973 181.36,317.511961722488 183.68,315.7527733755943 186,314.01574803149606 188.32,312.30046948356807 190.64,310.606531881804 192.95999999999998,308.9335394126739 195.28,307.28110599078343 197.6,305.64885496183206 199.92000000000002,304.0364188163885 202.24,302.4434389140272 204.56,300.8695652173913 206.88,299.31445603576753 209.2,297.77777777777777 211.52,296.25920471281296 213.84,294.75841874084915 216.16,293.27510917030565 218.48,291.80897250361795 220.8,290.3597122302158 223.12,288.92703862660943 225.44,287.51066856330016 227.76000000000002,286.1103253182461 230.08,284.7257383966245 232.4,283.35664335664336 234.72,282.0027816411683 237.04,280.66390041493776 239.35999999999999,279.3397524071527 241.67999999999998,278.0300957592339 244,276.734693877551 246.32,275.4533152909337 248.64,274.185733512786 250.96,272.9317269076305 253.28,271.69107856191744 255.6,270.4635761589404 257.92,269.2490118577075 260.24,268.04718217562254 262.56,266.85788787483705 264.88,265.6809338521401 267.20000000000005,264.51612903225805 269.52,263.3632862644416 271.84,262.22222222222223 274.15999999999997,261.0927573062262 276.48,259.97471554993683 278.79999999999995,258.86792452830184 281.12,257.77221526908636 283.44,256.6874221668742 285.76,255.61338289962825 288.08000000000004,254.54993834771886 290.4,253.49693251533745 292.72,252.45421245421247 295.04,251.4216281895504 297.36,250.39903264812577 299.68,249.38628158844764 302,248.38323353293413 304.32000000000005,247.38974970202622 306.64,246.40569395017795 308.96,245.43093270365998 311.28,244.4653349001175 313.6,243.50877192982458 315.91999999999996,242.56111757857974 318.24,241.62224797219005 320.56,240.69204152249137 322.88,239.77037887485648 325.2,238.85714285714283 327.52,237.95221843003415 329.84000000000003,237.0554926387316 332.16,236.16685456595263 334.48,235.2861952861953 336.8,234.41340782122904 339.12,233.5483870967742 341.44,232.69102990033224 343.76,231.8412348401323 346.08,230.99890230515916 348.4,230.1639344262295 350.71999999999997,229.33623503808485 353.04,228.5157096424702 355.36,227.70226537216828 357.68,226.89581095596134 360,226.09625668449198 362.32,225.30351437699682 364.64,224.5174973488865 366.96,223.73812038014785 369.28000000000003,222.9652996845426 371.6,222.19895287958116 373.92,221.43899895724712 376.24,220.68535825545175 378.56,219.9379524301965 380.88,219.1967044284243 383.20000000000005,218.46153846153845 385.52000000000004,217.73237997957102 387.84000000000003,217.00915564598168 390.16,216.29179331306992 392.48,215.58022199798185 394.8,214.87437185929647 397.11999999999995,214.17417417417417 399.44,213.47956131605184 401.76,212.7904667328699 404.08,212.10682492581603 406.4,211.42857142857144 408.71999999999997,210.7556427870461 411.03999999999996,210.08797653958942 413.35999999999996,209.42551119766313 415.68,208.7681862269641 418,208.1159420289855 420.32,207.4687199230029 422.64,206.82646212847553 424.96,206.18911174785097 427.28,205.5566127497621 429.6,204.92890995260666 431.92,204.3059490084986 434.24,203.68767638758231 436.56,203.07403936269918 438.88,202.46498599439775 441.2,201.86046511627907 443.52,201.2604263206673 445.84000000000003,200.66481994459835 448.16,200.07359705611773 450.48,199.48670944087993 452.8,198.9041095890411 455.12,198.32575068243858 457.44,197.75158658204896 459.76000000000005,197.18157181571817 462.08000000000004,196.6156615661566 464.40000000000003,196.05381165919283 466.72,195.49597855227884 469.03999999999996,194.94211932324134 471.35999999999996,194.3921916592724 473.67999999999995,193.84615384615384 476,193.30396475770925 478.32,192.7655838454785 480.64,192.2309711286089 482.96,191.70008718395815 485.28,191.17289313640313 487.59999999999997,190.64935064935065 489.91999999999996,190.12942191544437 492.24,189.61306964746345 494.56,189.10025706940874 496.88,188.59094790777112 499.2,188.08510638297872 501.52,187.58269720101782 503.84,187.083685545224 506.16,186.58803706823926 508.48,186.09571788413098 510.8,185.60669456066947 513.12,185.12093411175982 515.44,184.63840399002495 517.76,184.15907207953603 520.08,183.682906688687 522.4000000000001,183.20987654320987 524.72,182.73995077932733 527.04,182.27309893704006 529.36,181.80929095354526 531.6800000000001,181.34849715678308 534,180.8906882591093 536.32,180.43583535108957 538.6400000000001,179.98390989541434 540.96,179.53488372093022 543.28,179.08872901678654 545.5999999999999,178.64541832669323 547.92,178.2049245432883 550.24,177.76722090261285 552.56,177.33228097868982 554.88,176.90007867820617 557.2,176.47058823529414 559.52,176.04378420641126 561.8399999999999,175.61964146531568 564.16,175.19813519813522 566.48,174.77924089852826 568.8,174.36293436293437 571.12,173.94919168591224 573.44,173.53798925556413 575.76,173.12930374904363 578.0799999999999,172.72311212814645 580.4,172.319391634981 582.72,171.91811978771796 585.04,171.51927437641723 587.36,171.1228334589299 589.6800000000001,170.7287753568745 592,170.33707865168537 594.32,169.9477221807319 596.64,169.56068503350707 598.96,169.17594654788422 601.28,168.79348630643966 603.6,168.41328413284134 605.9200000000001,168.03532008830018 608.24,167.6595744680851 610.5600000000001,167.28602779809802 612.88,166.91466083150982 615.1999999999999,166.54545454545456 617.52,166.17839013778098 619.8399999999999,165.81344902386115 622.16,165.45061283345353 624.48,165.08986340762044 626.8,164.73118279569889 629.12,164.3745532523231 631.4399999999999,164.0199572344975 633.76,163.6673773987207 636.08,163.31679659815734 638.4,162.96819787985862 640.72,162.6215644820296 643.04,162.27687983134223 645.36,161.9341275402943 647.68,161.59329140461216 650,161.25435540069685" fill="none" stroke="#16a34a" stroke-width="2.5" />
  <polyline points="70,420 72.32,420 74.64,420 76.96,420 79.28,420 81.6,420 83.92,420 86.24000000000001,420 88.56,420 90.88,420 93.2,420 95.52,420 97.84,420 100.16,420 102.48,420 104.8,420 107.12,420 109.44,418.96365042536735 111.75999999999999,417.7949113338473 114.08,416.63335895465025 116.4,415.47892720306515 118.72,414.331550802139 121.03999999999999,413.1911652703732 123.36,412.0577069096431 125.68,410.9311127933384 128,409.811320754717 130.32,408.69826937547026 132.64,407.59189797449363 134.96,406.4921465968586 137.28,405.39895600298286 139.6,404.31226765799255 141.92000000000002,403.232023721275 144.24,402.1581670362158 146.56,401.0906411201179 148.88,400.0293901542983 151.2,398.974358974359 153.51999999999998,397.9254930606282 155.83999999999997,396.8827385287691 158.16,395.84604212055194 160.48000000000002,394.8153511947864 162.8,393.7906137184116 165.12,392.77177825773936 167.44,391.75879396984925 169.76,390.7516105941303 172.07999999999998,389.7501784439686 174.39999999999998,388.7544483985765 176.72,387.76437189496096 179.04000000000002,386.7799009200283 181.36,385.80098800282286 183.68,384.82758620689657 186,383.859649122807 188.32,382.89713086074175 190.64,381.9399860432659 192.95999999999998,380.98816979819065 195.28,380.04163775156144 197.6,379.10034602076126 199.92000000000002,378.1642512077295 202.24,377.2333103922918 204.56,376.30748112560053 206.88,375.3867214236824 209.2,374.47098976109214 211.52,373.56024506466986 213.84,372.65444670739987 216.16,371.75355450236964 218.48,370.8575286968265 220.8,369.96632996632997 223.12,369.07991940899933 225.44,368.19825853985265 227.76000000000002,367.32130928523713 230.08,366.44903397734845 232.4,365.5813953488372 234.72,364.71835652750167 237.04,363.8598810310641 239.35999999999999,363.00593276203034 241.67999999999998,362.15647600262986 244,361.3114754098361 246.32,360.47089601046434 248.64,359.634703196347 250.96,358.8028627195836 253.28,357.975340687865 255.6,357.1521035598705 257.92,356.33311814073596 260.24,355.5183515775918 262.56,354.70777135517017 264.88,353.9013452914798 267.20000000000005,353.0990415335463 269.52,352.3008285532186 271.84,351.50667514303876 274.15999999999997,350.716550412175 276.48,349.9304237824162 278.79999999999995,349.1482649842271 281.12,348.3700440528634 283.44,347.5957313245449 285.76,346.8252974326863 288.08000000000004,346.0587133041849 290.4,345.29595015576325 292.72,344.53697949036666 295.04,343.7817730936144 297.36,343.030303030303 299.68,342.28254164096234 302,341.53846153846155 304.32000000000005,340.7980356046654 306.64,340.0612369871402 308.96,339.3280390959071 311.28,338.59841560024375 313.6,337.8723404255319 315.91999999999996,337.14978775015163 318.24,336.43073200241986 320.56,335.7151478575739 322.88,335.0030102347983 325.2,334.29429429429433 327.52,333.58897543439184 329.84000000000003,332.88702928870293 332.16,332.18843172331543 334.48,331.4931588340273 336.8,330.80118694362017 339.12,330.1124925991711 341.44,329.42705256940343 343.76,328.74484384207426 346.08,328.06584362139915 348.4,327.3900293255132 350.71999999999997,326.7173785839673 353.04,326.0478692352598 355.36,325.381479324403 357.68,324.7181871005229 360,324.05797101449275 362.32,323.4008097165992 364.64,322.7466820542412 366.96,322.0955670696603 369.28000000000003,321.44744399770246 371.6,320.8022922636103 373.92,320.1600914808462 376.24,319.5208214489447 378.56,318.8844621513944 380.88,318.2509937535491 383.20000000000005,317.62039660056655 385.52000000000004,316.99265121537593 387.84000000000003,316.3677382966723 390.16,315.7456387169387 392.48,315.1263335204941 394.8,314.5098039215686 397.11999999999995,313.89603130240357 399.44,313.2849972113776 401.76,312.6766833611575 404.08,312.07107162687396 406.4,311.4681440443213 408.71999999999997,310.8678828081813 411.03999999999996,310.27027027027026 413.35999999999996,309.67528893780957 415.68,309.0829214717188 418,308.4931506849315 420.32,307.9059595407326 422.64,307.3213311511184 424.96,306.7392487751769 427.28,306.1596958174905 429.6,305.58265582655827 431.92,305.0081124932396 434.24,304.43604964921747 436.56,303.86645126548194 438.88,303.2993014508329 441.2,302.73458445040217 443.52,302.17228464419475 445.84000000000003,301.6123865456487 448.16,301.0548748002131 450.48,300.4997341839447 452.8,299.946949602122 455.12,299.3965060878772 457.44,298.8483888008452 459.76000000000005,298.30258302583024 462.08000000000004,297.7590741714887 464.40000000000003,297.2178477690289 466.72,296.6788894709272 469.03999999999996,296.1421850496602 471.35999999999996,295.6077203964528 473.67999999999995,295.07548152004165 476,294.5454545454545 478.32,294.01762571280454 480.64,293.4919813760993 482.96,292.96850800206505 485.28,292.44719216898505 487.59999999999997,291.92802056555274 489.91999999999996,291.41097998973834 492.24,290.89605734767025 494.56,290.38323965252937 496.88,289.8725140234574 499.2,289.36386768447835 501.52,288.85728796343324 503.84,288.35276229092756 506.16,287.8502781992919 508.48,287.34982332155477 510.8,286.8513853904282 513.12,286.35495223730516 515.44,285.86051179126946 517.76,285.3680520781172 520.08,284.8775612193903 522.4000000000001,284.3890274314215 524.72,283.9024390243902 527.04,283.417784401391 529.36,282.93505205751114 531.6800000000001,282.45423057892134 534,281.9753086419753 536.32,281.49827501232136 538.6400000000001,281.02311854402365 540.96,280.54982817869416 543.28,280.07839294463497 545.5999999999999,279.6088019559902 547.92,279.14104441190824 550.24,278.6751095957136 552.56,278.21098687408846 554.88,277.74866569626397 557.2,277.2881355932203 559.52,276.82938617689706 561.8399999999999,276.3724071394115 564.16,275.91718825228696 566.48,275.4637193656896 568.8,275.01199040767386 571.12,274.5619913834371 573.44,274.11371237458195 575.76,273.6671435383882 578.0799999999999,273.22227510709183 580.4,272.7790973871734 582.72,272.33760075865337 585.04,271.8977756743966 587.36,271.4596126594237 589.6800000000001,271.023102310231 592,270.5882352941177 594.32,270.1550023485204 596.64,269.7233942803563 598.96,269.293401965372 601.28,268.8650163475012 603.6,268.4382284382284 605.9200000000001,268.0130293159609 608.24,267.5894101254064 610.5600000000001,267.16736207695874 612.88,266.7468764460898 615.1999999999999,266.32794457274827 617.52,265.9105578607653 619.8399999999999,265.49470777726646 622.16,265.08038585209 624.48,264.6675836772123 626.8,264.2562929061785 629.12,263.84650525354044 631.4399999999999,263.43821249430005 633.76,263.03140646335913 636.08,262.626079054975 638.4,262.22222222222223 640.72,261.8198279764599 643.04,261.41888838680524 645.36,261.01939557961214 647.68,260.62134173795585 650,260.2247191011236" fill="none" stroke="#9333ea" stroke-width="2.5" />

  <!-- Legend -->
  
      <line x1="670" y1="60" x2="690" y2="60" stroke="#2563eb" stroke-width="2" />
      <text x="695" y="64" font-size="12" fill="#333">n=10 (45 pairs)</text>
    
      <line x1="670" y1="85" x2="690" y2="85" stroke="#dc2626" stroke-width="2" />
      <text x="695" y="89" font-size="12" fill="#333">n=20 (190 pairs)</text>
    
      <line x1="670" y1="110" x2="690" y2="110" stroke="#16a34a" stroke-width="2" />
      <text x="695" y="114" font-size="12" fill="#333">n=30 (435 pairs)</text>
    
      <line x1="670" y1="135" x2="690" y2="135" stroke="#9333ea" stroke-width="2" />
      <text x="695" y="139" font-size="12" fill="#333">n=50 (1225 pairs)</text>
    

  <!-- Formula annotation -->
  <text x="80" y="60" font-size="11" fill="#666" font-family="monospace">
    d = P / (P + 0.5 × maxPairs)
  </text>
  <text x="80" y="75" font-size="11" fill="#666" font-family="monospace">
    bounded to [0.05, 0.99]
  </text>
</svg>