<?xml version="1.0" encoding="UTF-8"?>
<svg xmlns="http://www.w3.org/2000/svg" width="800" height="500" viewBox="0 0 800 500">
  <rect width="800" height="500" fill="white"/>

  <!-- Title -->
  <text x="400" y="25" text-anchor="middle" font-size="16" font-weight="bold" fill="#333">
    Sigmoid Damping Factor vs Preference Coverage
  </text>

  <!-- Grid lines - Y axis (damping 0 to 1) -->
  <line x1="65" y1="440" x2="70" y2="440" stroke="#666" />
  <text x="60" y="444" text-anchor="end" font-size="12" fill="#333">0.0</text>
  <line x1="70" y1="440" x2="700" y2="440" stroke="#eee" />

  <line x1="65" y1="360" x2="70" y2="360" stroke="#666" />
  <text x="60" y="364" text-anchor="end" font-size="12" fill="#333">0.2</text>
  <line x1="70" y1="360" x2="700" y2="360" stroke="#eee" />

  <line x1="65" y1="280" x2="70" y2="280" stroke="#666" />
  <text x="60" y="284" text-anchor="end" font-size="12" fill="#333">0.4</text>
  <line x1="70" y1="280" x2="700" y2="280" stroke="#eee" />

  <line x1="65" y1="200" x2="70" y2="200" stroke="#666" />
  <text x="60" y="204" text-anchor="end" font-size="12" fill="#333">0.6</text>
  <line x1="70" y1="200" x2="700" y2="200" stroke="#eee" />

  <line x1="65" y1="120" x2="70" y2="120" stroke="#666" />
  <text x="60" y="124" text-anchor="end" font-size="12" fill="#333">0.8</text>
  <line x1="70" y1="120" x2="700" y2="120" stroke="#eee" />

  <line x1="65" y1="40" x2="70" y2="40" stroke="#666" />
  <text x="60" y="44" text-anchor="end" font-size="12" fill="#333">1.0</text>
  <line x1="70" y1="40" x2="700" y2="40" stroke="#eee" />

  <!-- Axes -->
  <line x1="70" y1="40" x2="70" y2="440" stroke="#333" stroke-width="1" />
  <line x1="70" y1="440" x2="700" y2="440" stroke="#333" stroke-width="1" />

  <!-- X axis ticks (coverage 0% to 200%) -->
  <line x1="70" y1="440" x2="70" y2="445" stroke="#666" />
  <text x="70" y="460" text-anchor="middle" font-size="12" fill="#333">0%</text>

  <line x1="227.5" y1="440" x2="227.5" y2="445" stroke="#666" />
  <text x="227.5" y="460" text-anchor="middle" font-size="12" fill="#333">50%</text>

  <line x1="385" y1="440" x2="385" y2="445" stroke="#666" />
  <text x="385" y="460" text-anchor="middle" font-size="12" fill="#333">100%</text>

  <line x1="542.5" y1="440" x2="542.5" y2="445" stroke="#666" />
  <text x="542.5" y="460" text-anchor="middle" font-size="12" fill="#333">150%</text>

  <line x1="700" y1="440" x2="700" y2="445" stroke="#666" />
  <text x="700" y="460" text-anchor="middle" font-size="12" fill="#333">200%</text>

  <!-- Axis labels -->
  <text x="385" y="485" text-anchor="middle" font-size="14" fill="#333">
    Coverage (P / maxPairs)
  </text>
  <text x="20" y="240" text-anchor="middle" font-size="14" fill="#333" transform="rotate(-90, 20, 240)">
    Damping Factor (d)
  </text>

  <!-- Reference line at d=0.5 -->
  <line x1="70" y1="240" x2="700" y2="240" stroke="#ccc" stroke-width="1" stroke-dasharray="5,5" />
  <text x="705" y="244" font-size="10" fill="#999">d=0.5</text>

  <!-- Sage marker (57.7% coverage) -->
  <line x1="252" y1="40" x2="252" y2="440" stroke="#fbbf24" stroke-width="1" stroke-dasharray="3,3" />
  <text x="252" y="330" text-anchor="middle" font-size="10" fill="#d97706">Sage (58%)</text>

  <!-- Solegria marker (101.6% coverage) -->
  <line x1="390" y1="40" x2="390" y2="440" stroke="#fb923c" stroke-width="1" stroke-dasharray="3,3" />
  <text x="390" y="330" text-anchor="middle" font-size="10" fill="#ea580c">Solegria (102%)</text>

  <!-- Data curves: d = 1 / (1 + exp(-a * coverage)) -->
  <!-- coverage goes from 0 to 2 (200%), x goes from 70 to 700 -->
  <!-- d goes from 0 to 1, y goes from 440 to 40 (inverted) -->

  <!-- a = 0.5 (default - blue) -->
  <polyline points="70.0,240.0 85.8,237.5 101.5,235.0 117.3,232.5 133.0,230.0 148.8,227.5 164.5,225.0 180.3,222.5 196.0,220.1 211.8,217.6 227.5,215.1 243.3,212.7 259.0,210.2 274.8,207.8 290.5,205.4 306.3,202.9 322.0,200.5 337.8,198.1 353.5,195.7 369.3,193.4 385.0,191.0 400.8,188.7 416.5,186.3 432.3,184.0 448.0,181.7 463.8,179.5 479.5,177.2 495.3,175.0 511.0,172.7 526.8,170.5 542.5,168.3 558.3,166.2 574.0,164.0 589.8,161.9 605.5,159.8 621.3,157.7 637.0,155.6 652.8,153.6 668.5,151.6 684.3,149.6 700.0,147.6" fill="none" stroke="#2563eb" stroke-width="2.5" />

  <!-- a = 0.75 (green) -->
  <polyline points="70.0,240.0 85.8,236.3 101.5,232.5 117.3,228.8 133.0,225.0 148.8,221.3 164.5,217.6 180.3,213.9 196.0,210.2 211.8,206.6 227.5,202.9 243.3,199.3 259.0,195.7 274.8,192.2 290.5,188.7 306.3,185.2 322.0,181.7 337.8,178.3 353.5,175.0 369.3,171.6 385.0,168.3 400.8,165.1 416.5,161.9 432.3,158.7 448.0,155.6 463.8,152.6 479.5,149.6 495.3,146.6 511.0,143.7 526.8,140.8 542.5,138.0 558.3,135.3 574.0,132.6 589.8,129.9 605.5,127.4 621.3,124.8 637.0,122.3 652.8,119.9 668.5,117.6 684.3,115.2 700.0,113.0" fill="none" stroke="#16a34a" stroke-width="2.5" />

  <!-- a = 1.0 (red) -->
  <polyline points="70.0,240.0 85.8,235.0 101.5,230.0 117.3,225.0 133.0,220.1 148.8,215.1 164.5,210.2 180.3,205.4 196.0,200.5 211.8,195.7 227.5,191.0 243.3,186.3 259.0,181.7 274.8,177.2 290.5,172.7 306.3,168.3 322.0,164.0 337.8,159.8 353.5,155.6 369.3,151.6 385.0,147.6 400.8,143.7 416.5,139.9 432.3,136.2 448.0,132.6 463.8,129.1 479.5,125.7 495.3,122.3 511.0,119.1 526.8,116.0 542.5,113.0 558.3,110.0 574.0,107.2 589.8,104.4 605.5,101.8 621.3,99.2 637.0,96.7 652.8,94.3 668.5,92.0 684.3,89.8 700.0,87.7" fill="none" stroke="#dc2626" stroke-width="2.5" />

  <!-- a = 1.5 (purple) -->
  <polyline points="70.0,240.0 85.8,232.5 101.5,225.0 117.3,217.6 133.0,210.2 148.8,202.9 164.5,195.7 180.3,188.7 196.0,181.7 211.8,175.0 227.5,168.3 243.3,161.9 259.0,155.6 274.8,149.6 290.5,143.7 306.3,138.0 322.0,132.6 337.8,127.4 353.5,122.3 369.3,117.6 385.0,113.0 400.8,108.6 416.5,104.4 432.3,100.5 448.0,96.7 463.8,93.2 479.5,89.8 495.3,86.6 511.0,83.6 526.8,80.8 542.5,78.1 558.3,75.6 574.0,73.3 589.8,71.1 605.5,69.0 621.3,67.0 637.0,65.2 652.8,63.5 668.5,61.9 684.3,60.4 700.0,59.0" fill="none" stroke="#9333ea" stroke-width="2.5" />

  <!-- Legend (lower-right) -->
  <rect x="555" y="330" width="140" height="95" fill="white" stroke="#ddd" rx="4" />
  <line x1="565" y1="350" x2="590" y2="350" stroke="#2563eb" stroke-width="2.5" />
  <text x="595" y="354" font-size="12" fill="#333">a = 0.5 (default)</text>

  <line x1="565" y1="370" x2="590" y2="370" stroke="#16a34a" stroke-width="2.5" />
  <text x="595" y="374" font-size="12" fill="#333">a = 0.75</text>

  <line x1="565" y1="390" x2="590" y2="390" stroke="#dc2626" stroke-width="2.5" />
  <text x="595" y="394" font-size="12" fill="#333">a = 1.0</text>

  <line x1="565" y1="410" x2="590" y2="410" stroke="#9333ea" stroke-width="2.5" />
  <text x="595" y="414" font-size="12" fill="#333">a = 1.5</text>

  <!-- Formula annotation -->
  <text x="80" y="60" font-size="11" fill="#666" font-family="monospace">
    d = 1 / (1 + exp(-a × coverage))
  </text>
  <text x="80" y="75" font-size="11" fill="#666" font-family="monospace">
    coverage = P / maxPairs
  </text>

  <!-- Key damping values annotation -->
  <text x="80" y="95" font-size="10" fill="#888">
    At a=0.5: Sage d=0.57, Solegria d=0.62
  </text>
</svg>
